<svg xmlns="http://www.w3.org/2000/svg" width="176" height="52" viewBox="0 0 176 52" fill="none"><style>.a{fill:white;}</style><path d="M7.8 23.4L10.4 22.1 14.6 15.8 15.9 15.3 17.2 21.6 15.4 21.9 14.1 19.3 13.1 23.4H17.6L22.3 24.6 24.1 23.4 27.3 26.7 28.7 20.6 30.9 22.9 32.3 20.9 34.5 20.3 37.7 17.3 38.2 15.8 40.9 16.2 42 17.7 40 21.9 44.9 19.4V18.1L46.8 17.7 48.8 19.8 50.9 17.3V15.5L54.2 13.2 55.6 11.2H57.7L61.4 3.4 64.7 0 65.9 1.9 64 4.4 64.7 5.9 66.5 6.3 67.9 12.7V18.1L70.5 21.7 71.8 26.7 67.3 23.8 65.4 15.5 64.2 15.8 64 21.4 60.8 26.7 59.8 34.8 62 35.3 63 34.2 65.1 36.6 66.7 44 66.6 48.7H64.5L63.7 42.1 62.3 44.1 59.1 43.4 56.6 41.2 53.7 42.2 53.8 46.9 51.5 47.6 48.1 50.2 44 49.6 42.4 48.7 39.9 49.1 40.7 50.2 38.7 51.4 37 50.6 34 52 29.3 49.6 27.5 45.5 25.9 45.6 24.1 44.1 24.1 43 18.3 42.4 17.4 45.5 13.8 43.9 12 40.8H8.2L7.8 45.7 5.5 46.4 4.4 50.9 3.6 50.1 0 40.7 4.3 38.7 3.6 34.6 2.9 30.4 4.8 27.7 4.2 26 6.7 23.2 7.8 23.4ZM64.5 33.7L68.4 39.6 69.7 39.1 68.1 36.6 64.5 32.8V33.7ZM24.4 21.6V19.9L27.4 17.7 30 16.4H27L24.3 18 22.7 19.5V21.6H24.4Z" class="a"/><path d="M89.8 41H94.6V35.8H97.2C101.1 35.8 103.8 33.5 103.8 29.7 103.8 26 101.2 23.5 97.3 23.5H89.8V41ZM94.6 32.1V27.3H96.2C97.9 27.3 98.9 28.2 98.9 29.7 98.9 31.2 97.9 32.1 96.2 32.1H94.6Z" class="a"/><path d="M111.6 41.2C115.9 41.2 118.4 38.5 118.4 34.5 118.4 30.5 115.9 27.7 111.6 27.7 107.4 27.7 104.8 30.5 104.8 34.5 104.8 38.5 107.4 41.2 111.6 41.2ZM111.6 37.8C110.4 37.8 109.6 36.5 109.6 34.5 109.6 32.4 110.4 31.1 111.6 31.1 112.8 31.1 113.6 32.4 113.6 34.5 113.6 36.5 112.8 37.8 111.6 37.8Z" class="a"/><path d="M126.6 41.2C130.4 41.2 132.8 39 132.8 35.5H128.5C128.4 36.9 127.7 37.7 126.6 37.7 125.4 37.7 124.6 36.6 124.6 34.5 124.6 32.3 125.4 31.3 126.6 31.3 127.7 31.3 128.4 32 128.5 33.4H132.8C132.8 30 130.4 27.7 126.6 27.7 122.3 27.7 119.8 30.5 119.8 34.5 119.8 38.5 122.3 41.2 126.6 41.2Z" class="a"/><path d="M141.1 41.2C144.9 41.2 147.3 39 147.3 35.5H143C142.9 36.9 142.2 37.7 141.1 37.7 139.9 37.7 139.1 36.6 139.1 34.5 139.1 32.3 139.9 31.3 141.1 31.3 142.2 31.3 142.9 32 143 33.4H147.3C147.3 30 144.9 27.7 141.1 27.7 136.8 27.7 134.3 30.5 134.3 34.5 134.3 38.5 136.8 41.2 141.1 41.2Z" class="a"/><path d="M153.7 35V27.9H149.3V41H153.7L157.3 33.9V41H161.8V27.9H157.3L153.7 35Z" class="a"/><path d="M171.7 41H176V27.9H169.9C166.1 27.9 163.7 29.8 163.8 32.5 163.8 34 164.6 35.2 166.2 35.9L163.6 41H167.9L170.1 36.7H171.7V41ZM171.7 33.8H170C168.7 33.8 168.2 33.2 168.2 32.6 168.2 32.1 168.7 31.4 169.9 31.4H171.7V33.8Z" class="a"/></svg>