<svg xmlns="http://www.w3.org/2000/svg" width="938" height="264" viewBox="0 0 938 264" fill="none"><style>.a{fill:white;}</style><path d="M904.5 162.7C904.5 163 904.3 163.2 904 163.2 896.2 163.2 892.1 165.2 885.5 168.4 885 168.7 884.4 168.9 883.9 169.2 883 169.7 881.9 169.4 880.9 168.8 879.8 168.1 878.6 167.1 877.4 165.8 875 163.1 872.3 159.3 869.7 155.3 867.9 152.7 866.2 149.9 864.5 147.4 863.7 146.1 863 144.9 862.3 143.8 861.2 142 860.2 140.5 859.3 139.3 858.4 138.1 857.8 137.3 857.3 136.8 844.3 125.3 826.2 134.7 823.1 151 822.3 155 821.5 158 820.6 160.2 819.7 162.4 818.7 163.8 817.6 164.7 815.3 166.3 812.8 165.2 810.2 163.6 809.5 163.2 808.7 162.6 807.9 162.1 805.9 160.7 803.8 159.3 801.6 158.4 798.4 157.1 794.9 156.8 791.1 159 789.9 159.7 788.2 161.4 786.3 163.5 784.5 165.7 782.5 168.2 780.6 170.7 778.8 173.1 777.1 175.5 775.8 177.2L775.8 177.2C775.2 178.1 774.7 178.8 774.4 179.3 774.2 179.5 774 179.7 773.9 179.8 773.9 179.9 773.8 180 773.8 180L773.8 180C773.8 180 773.7 180.1 773.6 180.1 773.6 180.1 773.4 180.2 773.3 180.1 773 180 772.9 179.8 772.9 179.6 772.3 173.9 769.5 167.6 765.6 163.1 761.7 158.6 756.7 155.8 751.7 156.7 743.7 158.1 739 163.8 735.1 170.6 733.9 172.8 732.7 175.1 731.6 177.4 730.9 178.7 730.2 180 729.5 181.3 727.7 184.9 725.6 188.4 723.2 191.2 722.9 191.6 722.5 191.8 722.1 191.9 721.8 192 721.4 191.9 721.1 191.8 720.4 191.5 719.8 190.8 719.3 190.2 719 189.8 718.8 189.5 718.5 189.1L718.5 189.1C718.2 188.8 718 188.5 717.8 188.2 717.5 187.9 717.3 187.6 717.1 187.4 716.9 187.2 716.7 187.1 716.5 187.1 714.7 186.5 712.2 186.3 709.6 186.5 707.1 186.6 704.5 187.1 702.6 187.6 699.6 188.5 695.7 190.9 691.4 193.8 689.1 195.4 686.6 197.2 684.2 199 682 200.6 679.9 202.1 677.7 203.6 673.1 206.9 668.4 210 664.1 211.9 659.8 213.7 655.8 214.5 652.7 213.2 650.3 212.1 648.1 211 646.1 210 645.8 209.8 645.4 209.6 645.1 209.4 643.4 208.5 641.9 207.7 640.3 206.9 636.4 205.1 632.4 203.8 626.9 203.8 624.4 203.8 622.9 204.5 622 205.2 621.5 205.6 621.1 206.1 620.8 206.5 620.6 206.8 620.5 207 620.3 207.2L620.3 207.3C620.1 207.5 619.9 207.7 619.8 208 619.4 208.4 619 208.9 618.5 209.2 617.9 209.5 617.3 209.7 616.5 209.7 614.9 209.6 612.7 208.9 609.3 207.2 604.2 204.5 599.6 200.3 595 195.9 594.5 195.3 594 194.8 593.5 194.3 589.4 190.4 585.4 186.5 581 183.4 579.6 182.5 577 180.3 573.8 177.6 572.7 176.6 571.5 175.6 570.2 174.5 565.3 170.4 559.4 165.6 553.5 161.5 547.6 157.3 541.7 153.9 536.9 152.7 534.5 152 532.3 151.9 530.6 152.4 528.9 153 527.5 154.2 526.6 156.2 523.8 162.2 524 168.9 524.2 175.7 524.2 176.3 524.3 176.8 524.3 177.3 524.5 184.7 524.4 192.1 520.1 198.5 514.1 207.5 509.9 218.6 509.9 230.3 509.9 233.3 509.1 242.1 508 249.7 507.5 253.6 506.8 257.2 506.1 259.6 505.7 260.9 505.4 261.9 504.9 262.5 504.7 262.8 504.4 263.1 504.1 263.2 503.7 263.3 503.4 263.1 503.1 262.9 500.4 260.2 495.8 258.9 490.3 258.3 485.6 257.7 480.3 257.6 475.1 257.6 474.2 257.6 473.3 257.6 472.4 257.5 466.3 257.5 460.3 257.3 455.5 256.2 450.7 255.1 446.9 253 445.4 249.1 444.5 246.7 444.1 244.3 443.8 242.2 443.8 241.7 443.7 241.2 443.6 240.8 443.5 239.2 443.3 237.8 443 236.5 442.5 234.9 441.9 233.6 440.5 232.7 439.2 231.7 437.1 231.1 433.9 230.9 429.3 230.6 426.2 229.6 424.1 228 422 226.4 421 224.1 420.4 221.4 419.9 219.1 419.8 216.3 419.7 213.3 419.6 212.8 419.6 212.4 419.6 211.9 419.4 208.3 419.2 204.4 418.3 200 418.2 199.3 418 198.2 417.8 197.1 417.8 196.7 417.7 196.4 417.7 196 417.5 194.4 417.2 192.6 416.8 190.9 416.4 189.3 416 187.8 415.5 187 415.2 186.5 414.9 186.2 414.7 186.1 414.4 186 414.1 186 413.8 186.1 405.5 189.9 396.9 192.5 388.3 195.2L387.8 195.3C381 197.4 376.4 198.6 373.1 198.7 369.8 198.9 367.8 198.1 366.4 196.2 365.7 195.3 365.2 194.1 364.7 192.8 364.3 191.4 363.9 189.9 363.5 188.1L363.4 187.9C362.6 184.4 361.5 180.1 359.5 174.9 357.8 170.5 355.3 167.4 352.6 164.7 351.4 163.5 350.1 162.3 348.7 161.1 348.6 161 348.4 160.8 348.2 160.7 346.7 159.3 345.2 157.9 343.7 156.3 342.5 155.2 340.8 154 338.7 152.7 337.8 152.1 336.8 151.5 335.8 150.9 334.6 150.2 333.3 149.4 332.1 148.7 329.9 147.3 327.8 145.8 326.2 144.2 324.6 142.7 323.4 141 323.2 139.1 322.8 135.2 321.5 133.4 319.8 132.8 318.1 132.1 315.7 132.6 313.2 133.8 308.2 136.1 302.8 140.9 300.6 143 297.9 145.5 295.2 148 292.6 150.4 273.2 168.2 255.8 184.2 243 210.3L242.9 210.5C241.8 212.9 237.7 221.2 233.7 226.5 232.7 227.9 231.7 229.1 230.7 230 229.8 230.8 228.8 231.4 227.8 231.4 226.8 231.4 226 230.7 225.5 229.4 225 228.1 224.6 226.2 224.5 223.6 224.2 215.7 221.7 207.2 218.5 199 215.9 192.6 213 186.4 210.3 180.7 209.6 179.1 208.8 177.6 208.1 176.1 195 147.9 180.5 118.9 157.7 100.4 156 99 154.5 97.9 153.2 96.8 149.6 94 147 91.9 144.7 89.4 141.4 86 138.7 81.7 134.5 73.3 134.2 72.7 133.8 72.1 133.5 71.5 129.2 63 124.6 53.9 118.9 47.6 115.9 44.3 112.6 41.7 108.8 40.5 105.1 39.4 100.9 39.5 96.2 41.5 94.6 42.2 92.8 43.6 91 45.5 89.2 47.3 87.5 49.6 85.7 52 83 56 80.4 60.2 78.5 63.5 78.1 64.2 77.7 64.9 77.3 65.5 63.5 88.3 45.8 106 28 124 25.1 126.8 22.2 129.7 19.3 132.7 19.1 132.9 18.8 132.9 18.6 132.6 18.4 132.4 18.5 132 18.7 131.8 21.6 128.9 24.4 126 27.3 123.1 45.2 105.1 62.8 87.5 76.5 64.8 76.8 64.2 77.2 63.5 77.7 62.8 79.6 59.6 82.2 55.3 85 51.3 86.7 48.9 88.5 46.5 90.4 44.6 92.2 42.7 94.1 41.2 95.9 40.4 100.8 38.3 105.1 38.2 109.1 39.4 113 40.7 116.5 43.3 119.6 46.8 125.4 53.2 130.1 62.4 134.4 70.9 134.7 71.5 135 72.1 135.3 72.8 139.5 81 142.2 85.2 145.4 88.6 147.6 91 150.2 93 153.7 95.8 155 96.9 156.5 98.1 158.2 99.4 181.3 118.2 195.9 147.4 209 175.5 209.7 177 210.4 178.5 211.2 180.1 213.9 185.8 216.8 192.1 219.4 198.5 222.6 206.8 225.2 215.4 225.5 223.5 225.6 226.1 225.9 227.8 226.4 228.8 226.8 229.9 227.3 230.2 227.9 230.2 228.5 230.2 229.2 229.8 230.1 229 231 228.3 232 227.1 233 225.8 236.9 220.5 240.9 212.3 242.1 209.9L242.2 209.7C255 183.4 272.6 167.3 292 149.5 294.6 147.1 297.3 144.6 300 142.1 302.2 140 307.7 135.1 312.9 132.7 315.4 131.5 318 130.9 320.1 131.7 322.3 132.5 323.8 134.8 324.2 138.9 324.3 140.4 325.2 141.8 326.8 143.3 328.3 144.8 330.4 146.3 332.6 147.6 333.8 148.4 335 149.1 336.2 149.9 337.2 150.5 338.2 151.1 339.2 151.6 341.2 152.9 343.1 154.2 344.3 155.5 345.8 157 347.4 158.4 348.9 159.8 349 159.9 349.2 160 349.3 160.2 350.7 161.4 352 162.5 353.2 163.8 356.1 166.6 358.6 169.8 360.4 174.4 362.4 179.7 363.5 184.1 364.4 187.6L364.4 187.8C364.9 189.6 365.2 191.1 365.7 192.4 366.1 193.6 366.5 194.7 367.1 195.4 368.2 197 369.9 197.7 373 197.6 376.2 197.4 380.8 196.3 387.5 194.2L388.1 194.1C396.7 191.4 405.2 188.8 413.4 185 414 184.8 414.6 184.8 415.1 185 415.5 185.3 415.9 185.7 416.3 186.3 416.9 187.4 417.4 188.9 417.8 190.6 418.2 192.3 418.4 194.2 418.7 195.8 418.7 196.2 418.8 196.6 418.8 196.9 419 198.1 419.1 199.1 419.3 199.7 420.2 204.2 420.4 208.3 420.6 211.9 420.6 212.3 420.6 212.8 420.7 213.2 420.8 216.3 420.9 218.9 421.4 221.1 421.9 223.7 422.8 225.6 424.7 227.1 426.6 228.5 429.5 229.4 434 229.7 437.3 229.9 439.5 230.6 441.1 231.7 442.6 232.8 443.4 234.4 443.9 236.2 444.3 237.5 444.5 239.1 444.6 240.7 444.7 241.1 444.8 241.6 444.8 242 445.1 244.1 445.4 246.4 446.3 248.6 447.6 252 451 253.9 455.7 255 460.4 256.1 466.3 256.3 472.5 256.4 473.3 256.4 474.2 256.4 475.1 256.4 480.3 256.5 485.7 256.5 490.4 257.1 495.9 257.7 500.8 259.1 503.7 262 503.8 262.1 503.9 262 503.9 262 503.9 262 504 262 504.1 261.7 504.5 261.3 504.8 260.5 505.1 259.3 505.8 256.9 506.5 253.4 507 249.5 508.1 241.9 508.9 233.2 508.9 230.3 508.9 218.3 513.2 206.9 519.3 197.8 523.4 191.7 523.5 184.7 523.3 177.4 523.3 176.8 523.2 176.3 523.2 175.7 523 169 522.8 162 525.7 155.6 526.8 153.3 528.3 151.9 530.3 151.3 532.3 150.7 534.6 150.8 537.1 151.5 542.1 152.9 548.1 156.3 554 160.5 560 164.6 565.9 169.5 570.8 173.6 572.1 174.7 573.3 175.7 574.5 176.7 577.7 179.4 580.1 181.5 581.5 182.4 586 185.5 590.1 189.5 594.1 193.4 594.6 193.9 595.2 194.5 595.7 195 600.2 199.4 604.7 203.5 609.7 206.1 613.1 207.8 615.2 208.5 616.5 208.5 617.2 208.5 617.6 208.4 618 208.1 618.4 207.9 618.7 207.6 619 207.2 619.2 207 619.3 206.8 619.5 206.5 619.6 206.3 619.8 206 620 205.8 620.4 205.3 620.8 204.8 621.4 204.3 622.6 203.3 624.2 202.7 626.9 202.7 632.6 202.7 636.7 204 640.7 205.8 642.3 206.6 643.9 207.5 645.5 208.3 645.8 208.5 646.2 208.7 646.5 208.9 648.5 210 650.6 211.1 653 212.1 655.8 213.3 659.5 212.6 663.7 210.8 667.9 208.9 672.5 205.9 677.2 202.6 679.3 201.2 681.5 199.6 683.6 198.1 686.1 196.2 688.6 194.4 690.9 192.8 695.2 189.9 699.2 187.4 702.4 186.5 704.3 185.9 706.9 185.5 709.5 185.3 712.1 185.1 714.8 185.3 716.8 186 717.1 186.1 717.4 186.3 717.7 186.5 718 186.8 718.2 187.1 718.5 187.4 718.7 187.7 719 188 719.3 188.4L719.3 188.4C719.5 188.7 719.8 189.1 720 189.4 720.6 190 721 190.5 721.4 190.7 721.6 190.8 721.8 190.8 722 190.8 722.1 190.7 722.3 190.7 722.5 190.4 724.9 187.6 726.8 184.3 728.7 180.7 729.4 179.4 730 178.1 730.7 176.8 731.8 174.5 733 172.2 734.3 170 738.2 163 743.1 157 751.6 155.5 757 154.5 762.3 157.6 766.3 162.3 770.1 166.7 772.9 172.6 773.8 178.3 774.1 177.8 774.5 177.2 775.1 176.5L775.1 176.5C776.3 174.8 778 172.4 779.9 169.9 781.7 167.4 783.8 164.9 785.6 162.7 787.5 160.6 789.3 158.8 790.6 158 794.8 155.6 798.5 155.9 801.9 157.3 804.3 158.3 806.5 159.8 808.5 161.1 809.3 161.7 810 162.2 810.7 162.6 813.3 164.2 815.3 165 817.1 163.7 818 163 818.8 161.8 819.7 159.7 820.5 157.6 821.3 154.7 822.1 150.7 825.4 133.6 844.3 123.8 857.9 135.9 858.5 136.4 859.2 137.4 860.1 138.6 860.9 139.8 862 141.3 863.1 143.1 863.8 144.2 864.6 145.4 865.4 146.7 867 149.2 868.7 152 870.5 154.6 873.1 158.6 875.8 162.3 878.1 164.9 879.3 166.2 880.4 167.2 881.3 167.7 882.3 168.3 883 168.4 883.5 168.1 884.1 167.9 884.6 167.6 885.1 167.4 891.7 164.2 896 162.1 904 162.1 904.3 162.1 904.5 162.3 904.5 162.7Z" class="a"/><path d="M74.1 10.8H76.9C78.6 10.8 79.3 9.9 79.3 8.6 79.3 7.2 78.5 6.5 77.8 6.5V6.4C78.5 6.2 79 5.6 79 4.6 79 3.3 78.3 2.4 76.8 2.4H74.1V10.8ZM75.2 9.7V7H76.8C77.7 7 78.2 7.7 78.2 8.5 78.2 9.2 77.8 9.7 76.8 9.7H75.2ZM75.2 6V3.4H76.7C77.6 3.4 78 4 78 4.7 78 5.5 77.4 6 76.7 6H75.2Z" class="a"/><path d="M82.1 10.8H86.7V9.7H83.2V7.1H86.5V6H83.2V3.5H86.7V2.4H82.1V10.8Z" class="a"/><path d="M89.1 10.8H89.4C91.1 10.8 91.5 9.4 91.6 6.7L91.7 3.4H94.2V10.8H95.2V2.4H90.6L90.5 6.3C90.4 8.8 90.2 9.7 89.3 9.7L89.1 9.7V10.8Z" class="a"/><path d="M98.3 2.4V10.8H99.4L103 4.6H103.1V10.8H104.2V2.4H103.2L99.5 8.6H99.4V2.4H98.3Z" class="a"/><path d="M111.6 10.8H113L110 6.2 113 2.4H111.6L108.8 5.9H108.4V2.4H107.3V10.8H108.4V7H109.2L111.6 10.8Z" class="a"/><path d="M115.6 2.4V10.8H116.6L120.3 4.6H120.3V10.8H121.4V2.4H120.4L116.7 8.6H116.7V2.4H115.6Z" class="a"/><path d="M124.5 2.4V10.8H125.6L129.2 4.6H129.3V10.8H130.4V2.4H129.4L125.7 8.6H125.6V2.4H124.5ZM128.2 0.2C128.2 0.6 128 1 127.5 1 127 1 126.8 0.6 126.8 0.2H125.9C125.9 1.1 126.5 1.8 127.5 1.8 128.4 1.8 129 1.1 129 0.2H128.2Z" class="a"/><path d="M69.5 24.8H70.6V21.1H74.3V24.8H75.4V16.3H74.3V20H70.6V16.3H69.5V24.8Z" class="a"/><path d="M84.8 20.6C84.8 17.9 83.4 16.2 81.5 16.2 79.6 16.2 78.2 17.9 78.2 20.6 78.2 23.3 79.6 24.9 81.5 24.9 83.4 24.9 84.8 23.3 84.8 20.6ZM83.7 20.6C83.7 22.6 82.8 23.8 81.5 23.8 80.2 23.8 79.3 22.6 79.3 20.6 79.3 18.5 80.2 17.4 81.5 17.4 82.8 17.4 83.7 18.5 83.7 20.6Z" class="a"/><path d="M87.6 24.8H90.4C92.1 24.8 92.9 23.8 92.9 22.5 92.9 21.2 92.1 20.5 91.4 20.4V20.4C92 20.2 92.6 19.6 92.6 18.6 92.6 17.3 91.9 16.3 90.3 16.3H87.6V24.8ZM88.7 23.7V21H90.4C91.2 21 91.8 21.7 91.8 22.5 91.8 23.2 91.4 23.7 90.3 23.7H88.7ZM88.7 20V17.4H90.2C91.1 17.4 91.5 18 91.5 18.7 91.5 19.5 91 20 90.2 20H88.7Z" class="a"/><path d="M100.2 16.3H95.7V24.8H96.8V17.4H100.2V16.3Z" class="a"/><path d="M109 20.6C109 17.9 107.6 16.2 105.7 16.2 103.8 16.2 102.4 17.9 102.4 20.6 102.4 23.3 103.8 24.9 105.7 24.9 107.6 24.9 109 23.3 109 20.6ZM107.9 20.6C107.9 22.6 107 23.8 105.7 23.8 104.4 23.8 103.5 22.6 103.5 20.6 103.5 18.5 104.4 17.4 105.7 17.4 107 17.4 107.9 18.5 107.9 20.6Z" class="a"/><path d="M111.8 24.8H112.9V21.8H114.4C116.1 21.8 117 20.7 117 19.1 117 17.5 116.1 16.3 114.4 16.3H111.8V24.8ZM112.9 20.8V17.4H114.3C115.4 17.4 115.8 18.1 115.8 19.1 115.8 20 115.4 20.8 114.3 20.8H112.9Z" class="a"/><path d="M126.1 20.6C126.1 17.9 124.7 16.2 122.8 16.2 120.9 16.2 119.5 17.9 119.5 20.6 119.5 23.3 120.9 24.9 122.8 24.9 124.7 24.9 126.1 23.3 126.1 20.6ZM125 20.6C125 22.6 124 23.8 122.8 23.8 121.5 23.8 120.6 22.6 120.6 20.6 120.6 18.5 121.5 17.4 122.8 17.4 124 17.4 125 18.5 125 20.6Z" class="a"/><path d="M128.4 26.9H129.4V24.8H134.3V26.9H135.4V23.7H134.5V16.3H130.1L129.9 19.9C129.8 22.3 129.3 23.3 128.9 23.7H128.4V26.9ZM130.1 23.7C130.6 23 130.8 21.7 130.9 19.9L131 17.4H133.5V23.7H130.1Z" class="a"/><path d="M5.9 145.7H0.3V154.2H1.4V146.8H4.8V154.2H5.9V145.7Z" class="a"/><path d="M15.1 148.5C14.9 146.6 13.6 145.6 12.1 145.6 10.2 145.6 8.8 147.2 8.8 149.9 8.8 152.6 10.2 154.3 12.1 154.3 13.7 154.3 14.9 153.1 15.1 151.4L14 151.4C13.8 152.5 13 153.1 12.1 153.1 10.9 153.1 9.9 152 9.9 149.9 9.9 147.9 10.9 146.7 12.1 146.7 13 146.7 13.8 147.4 14 148.5H15.1Z" class="a"/><path d="M22.2 154.2H23.6L20.6 149.5 23.6 145.7H22.2L19.4 149.3H19V145.7H17.9V154.2H19V150.4H19.8L22.2 154.2Z" class="a"/><path d="M32.1 149.9C32.1 147.2 30.7 145.6 28.9 145.6 27 145.6 25.6 147.2 25.6 149.9 25.6 152.6 27 154.3 28.9 154.3 30.7 154.3 32.1 152.6 32.1 149.9ZM31 149.9C31 152 30.1 153.1 28.9 153.1 27.6 153.1 26.7 152 26.7 149.9 26.7 147.9 27.6 146.7 28.9 146.7 30.1 146.7 31 147.9 31 149.9Z" class="a"/><path d="M35 154.2H37.8C39.5 154.2 40.2 153.2 40.2 151.9 40.2 150.6 39.4 149.8 38.7 149.8V149.7C39.4 149.5 40 149 40 147.9 40 146.7 39.2 145.7 37.7 145.7H35V154.2ZM36.1 153.1V150.4H37.7C38.6 150.4 39.1 151 39.1 151.8 39.1 152.5 38.7 153.1 37.7 153.1H36.1ZM36.1 149.4V146.8H37.6C38.5 146.8 38.9 147.3 38.9 148 38.9 148.8 38.3 149.4 37.6 149.4H36.1Z" class="a"/><path d="M163.5 178.3H165.7V185.6H166.8V178.3H169.1V177.2H163.5V178.3Z" class="a"/><path d="M171.9 185.6H174.6C176.3 185.6 177.1 184.7 177.1 183.4 177.1 182 176.3 181.3 175.6 181.3V181.2C176.3 181 176.8 180.4 176.8 179.4 176.8 178.1 176.1 177.2 174.5 177.2H171.9V185.6ZM173 184.5V181.8H174.6C175.5 181.8 176 182.5 176 183.3 176 184 175.6 184.5 174.5 184.5H173ZM173 180.8V178.2H174.5C175.3 178.2 175.7 178.8 175.7 179.5 175.7 180.3 175.2 180.8 174.4 180.8H173Z" class="a"/><path d="M179.9 185.6H184.5V184.5H181V181.9H184.2V180.8H181V178.3H184.5V177.2H179.9V185.6Z" class="a"/><path d="M187.4 185.6H188.5V182.7H190C191.7 182.7 192.5 181.5 192.5 179.9 192.5 178.3 191.7 177.2 190 177.2H187.4V185.6ZM188.5 181.6V178.3H189.9C191 178.3 191.4 178.9 191.4 179.9 191.4 180.9 191 181.6 189.9 181.6H188.5Z" class="a"/><path d="M196.4 180.6V177.2H195.3V185.6H198.1C199.7 185.6 200.6 184.6 200.6 183.1 200.6 181.5 199.7 180.6 198.1 180.6H196.4ZM196.4 181.7H198.1C199 181.7 199.5 182.3 199.5 183 199.5 183.8 199 184.6 198.1 184.6H196.4V181.7Z" class="a"/><path d="M261.7 211.3V202.8H259.1C257.4 202.8 256.5 203.9 256.5 205.5 256.5 206.6 257 207.5 257.9 207.8L256.3 211.3H257.5L259 208.1C259 208.1 259 208.1 259.1 208.1H260.6V211.3H261.7ZM260.6 207H259.2C258.1 207 257.6 206.4 257.6 205.5 257.6 204.5 258.1 203.9 259.2 203.9H260.6V207Z" class="a"/><path d="M264.7 211.3H265.8V208.3H267.3C269 208.3 269.9 207.1 269.9 205.5 269.9 204 269 202.8 267.3 202.8H264.7V211.3ZM265.8 207.2V203.9H267.2C268.3 203.9 268.8 204.6 268.8 205.5 268.8 206.5 268.3 207.2 267.2 207.2H265.8Z" class="a"/><path d="M279 207C279 204.3 277.6 202.7 275.7 202.7 273.8 202.7 272.4 204.3 272.4 207 272.4 209.7 273.8 211.4 275.7 211.4 277.6 211.4 279 209.7 279 207ZM277.9 207C277.9 209.1 276.9 210.2 275.7 210.2 274.4 210.2 273.5 209.1 273.5 207 273.5 205 274.4 203.8 275.7 203.8 276.9 203.8 277.9 205 277.9 207Z" class="a"/><path d="M287.9 205.6C287.6 203.7 286.4 202.7 284.9 202.7 283 202.7 281.6 204.3 281.6 207 281.6 209.7 283 211.4 284.9 211.4 286.5 211.4 287.6 210.2 287.9 208.5L286.8 208.5C286.6 209.6 285.8 210.2 284.9 210.2 283.6 210.2 282.7 209.1 282.7 207 282.7 205 283.6 203.8 284.9 203.8 285.8 203.8 286.6 204.5 286.8 205.6H287.9Z" class="a"/><path d="M290.1 211.3H290.4C292.1 211.3 292.5 209.8 292.6 207.1L292.7 203.9H295.2V211.3H296.3V202.8H291.7L291.5 206.8C291.5 209.2 291.2 210.1 290.3 210.2L290.1 210.2V211.3Z" class="a"/><path d="M300 211.3L300.7 209H303.5L304.2 211.3H305.3L302.7 202.8H301.4L298.8 211.3H300ZM301 208L302 204.3H302.1L303.2 208H301Z" class="a"/><path d="M307.9 211.3H310.7C312.3 211.3 313.1 210.3 313.1 209 313.1 207.7 312.3 206.9 311.6 206.9V206.8C312.3 206.6 312.8 206.1 312.8 205 312.8 203.8 312.1 202.8 310.5 202.8H307.9V211.3ZM309 210.2V207.5H310.6C311.5 207.5 312 208.1 312 208.9 312 209.6 311.6 210.2 310.6 210.2H309ZM309 206.5V203.9H310.5C311.3 203.9 311.8 204.4 311.8 205.1 311.8 205.9 311.2 206.5 310.4 206.5H309Z" class="a"/><path d="M315.4 211.3H315.7C317.3 211.3 317.7 209.8 317.8 207.1L317.9 203.9H320.4V211.3H321.5V202.8H316.9L316.8 206.8C316.7 209.2 316.4 210.1 315.6 210.2L315.4 210.2V211.3Z" class="a"/><path d="M325.7 206.2V202.8H324.6V211.3H327.3C329 211.3 329.9 210.2 329.9 208.7 329.9 207.2 329 206.2 327.3 206.2H325.7ZM325.7 207.3H327.3C328.3 207.3 328.8 207.9 328.8 208.7 328.8 209.5 328.3 210.2 327.3 210.2H325.7V207.3Z" class="a"/><path d="M339.8 132.9V141.4H340.8V135.2H340.9L343.1 141.3H343.9L346.1 135.2H346.1V141.4H347.2V132.9H345.8L343.5 139.5H343.4L341.1 132.9H339.8Z" class="a"/><path d="M351.1 141.4L351.7 139.1H354.6L355.2 141.4H356.4L353.8 132.9H352.5L349.9 141.4H351.1ZM352.1 138L353.1 134.4H353.2L354.3 138H352.1Z" class="a"/><path d="M359 141.4H360.1V137.7H363.7V141.4H364.8V132.9H363.7V136.6H360.1V132.9H359V141.4Z" class="a"/><path d="M367.5 134H369.8V141.4H370.9V134H373.2V132.9H367.5V134Z" class="a"/><path d="M376.4 141.5H376.9C378 141.5 378.4 140.7 378.7 139.9L381.3 132.9H380.1L378.4 137.8 376.5 132.9H375.3L377.9 139.2 377.8 139.5C377.6 140 377.4 140.3 376.9 140.3H376.4V141.5Z" class="a"/><path d="M383.8 141.4H384.9V138.4H386.4C388.1 138.4 388.9 137.2 388.9 135.6 388.9 134.1 388.1 132.9 386.4 132.9H383.8V141.4ZM384.9 137.3V134H386.3C387.4 134 387.8 134.7 387.8 135.6 387.8 136.6 387.4 137.3 386.3 137.3H384.9Z" class="a"/><path d="M398 137.1C398 134.4 396.6 132.8 394.7 132.8 392.8 132.8 391.5 134.4 391.5 137.1 391.5 139.8 392.8 141.5 394.7 141.5 396.6 141.5 398 139.8 398 137.1ZM396.9 137.1C396.9 139.2 396 140.3 394.7 140.3 393.5 140.3 392.5 139.2 392.5 137.1 392.5 135 393.5 133.9 394.7 133.9 396 133.9 396.9 135 396.9 137.1Z" class="a"/><path d="M400.9 141.4H403.7C405.4 141.4 406.1 140.4 406.1 139.1 406.1 137.8 405.3 137 404.6 137V136.9C405.3 136.7 405.8 136.2 405.8 135.1 405.8 133.8 405.1 132.9 403.5 132.9H400.9V141.4ZM402 140.3V137.5H403.6C404.5 137.5 405 138.2 405 139 405 139.7 404.6 140.3 403.6 140.3H402ZM402 136.5V134H403.5C404.3 134 404.8 134.5 404.8 135.2 404.8 136 404.2 136.5 403.4 136.5H402Z" class="a"/><path d="M415.2 137.1C415.2 134.4 413.8 132.8 412 132.8 410.1 132.8 408.7 134.4 408.7 137.1 408.7 139.8 410.1 141.5 412 141.5 413.8 141.5 415.2 139.8 415.2 137.1ZM414.2 137.1C414.2 139.2 413.2 140.3 412 140.3 410.7 140.3 409.8 139.2 409.8 137.1 409.8 135 410.7 133.9 412 133.9 413.2 133.9 414.2 135 414.2 137.1Z" class="a"/><path d="M396.6 174H398L395 169.3 398 165.5H396.6L393.8 169.1H393.4V165.5H392.3V174H393.4V170.2H394.2L396.6 174Z" class="a"/><path d="M406.5 169.7C406.5 167 405.1 165.4 403.3 165.4 401.4 165.4 400 167 400 169.7 400 172.5 401.4 174.1 403.3 174.1 405.1 174.1 406.5 172.5 406.5 169.7ZM405.4 169.7C405.4 171.8 404.5 172.9 403.3 172.9 402 172.9 401.1 171.8 401.1 169.7 401.1 167.7 402 166.6 403.3 166.6 404.5 166.6 405.4 167.7 405.4 169.7Z" class="a"/><path d="M408.7 166.6H411V174H412.1V166.6H414.4V165.5H408.7V166.6Z" class="a"/><path d="M417.1 174H421.7V172.9H418.2V170.3H421.4V169.2H418.2V166.6H421.7V165.5H417.1V174Z" class="a"/><path d="M424.1 174H424.4C426 174 426.4 172.6 426.5 169.8L426.7 166.6H429.1V174H430.2V165.5H425.6L425.5 169.5C425.4 171.9 425.2 172.8 424.3 172.9L424.1 172.9V174Z" class="a"/><path d="M434.4 168.9V165.5H433.3V174H436C437.7 174 438.6 172.9 438.6 171.4 438.6 169.9 437.7 168.9 436 168.9H434.4ZM434.4 170H436C437 170 437.5 170.6 437.5 171.4 437.5 172.2 437 172.9 436 172.9H434.4V170Z" class="a"/><path d="M441.4 174H442.5V170.3H446.2V174H447.3V165.5H446.2V169.2H442.5V165.5H441.4V174Z" class="a"/><path d="M450.4 165.5V174H451.4L455.1 167.8H455.1V174H456.2V165.5H455.2L451.5 171.7H451.4V165.5H450.4Z" class="a"/><path d="M459.5 165.5V168.3C459.5 170.2 460.4 170.9 462 170.9 462.7 170.9 463.3 170.8 463.9 170.7V174H465V165.5H463.9V169.6C463.3 169.7 462.6 169.8 462 169.8 461.1 169.8 460.6 169.5 460.6 168.3V165.5H459.5Z" class="a"/><path d="M471.3 169.2H468V170.3H471.3V169.2Z" class="a"/><path d="M476.7 165.5H475.7C475.7 165.7 475.1 166.8 474 166.8V167.9C474.9 167.9 475.4 167.5 475.6 167.2H475.6V174H476.7V165.5Z" class="a"/><path d="M528.3 211H523.8V219.4H524.9V212.1H528.3V211Z" class="a"/><path d="M530.5 219.4H530.8C532.5 219.4 532.9 218 533 215.3L533.1 212H535.6V219.4H536.7V211H532.1L531.9 214.9C531.9 217.4 531.6 218.3 530.7 218.3L530.5 218.3V219.4Z" class="a"/><path d="M540.4 219.4L541 217.2H543.9L544.5 219.4H545.7L543.1 211H541.8L539.2 219.4H540.4ZM541.4 216.1L542.4 212.5H542.5L543.6 216.1H541.4Z" class="a"/><path d="M550.7 219.5C552.2 219.5 553.3 218.5 553.3 217.1 553.3 216 552.7 215.3 551.7 215.1V215C552.5 214.8 553 214.1 553 213.1 553 211.9 552.1 210.8 550.7 210.8 549.4 210.8 548.3 211.8 548.3 213.2H549.3C549.4 212.4 550 211.9 550.7 211.9 551.5 211.9 551.9 212.4 551.9 213.2 551.9 214 551.4 214.6 550.6 214.6H550V215.6H550.6C551.6 215.6 552.2 216.2 552.2 217.1 552.2 217.9 551.5 218.4 550.7 218.4 549.9 218.4 549.3 218 549.2 217.2H548.1C548.2 218.6 549.2 219.5 550.7 219.5Z" class="a"/><path d="M562.5 215.2C562.5 212.5 561.1 210.8 559.3 210.8 557.4 210.8 556 212.5 556 215.2 556 217.9 557.4 219.5 559.3 219.5 561.1 219.5 562.5 217.9 562.5 215.2ZM561.4 215.2C561.4 217.3 560.5 218.4 559.3 218.4 558 218.4 557.1 217.3 557.1 215.2 557.1 213.1 558 212 559.3 212 560.5 212 561.4 213.1 561.4 215.2Z" class="a"/><path d="M565.4 219.4H568.2C569.9 219.4 570.6 218.4 570.6 217.2 570.6 215.8 569.8 215.1 569.1 215.1V215C569.8 214.8 570.4 214.2 570.4 213.2 570.4 211.9 569.6 211 568.1 211H565.4V219.4ZM566.5 218.3V215.6H568.1C569 215.6 569.5 216.3 569.5 217.1 569.5 217.8 569.1 218.3 568.1 218.3H566.5ZM566.5 214.6V212H568C568.9 212 569.3 212.6 569.3 213.3 569.3 214.1 568.7 214.6 568 214.6H566.5Z" class="a"/><path d="M531.6 135.8H526V144.3H527.1V136.9H530.5V144.3H531.6V135.8Z" class="a"/><path d="M534.7 144.3H539.3V143.2H535.8V140.6H539.1V139.5H535.8V136.9H539.3V135.8H534.7V144.3Z" class="a"/><path d="M542.3 144.3H543.4V141.3H544.9C546.5 141.3 547.4 140.1 547.4 138.6 547.4 137 546.6 135.8 544.9 135.8H542.3V144.3ZM543.4 140.2V136.9H544.7C545.8 136.9 546.3 137.6 546.3 138.6 546.3 139.5 545.8 140.2 544.8 140.2H543.4Z" class="a"/><path d="M550.2 135.8V144.3H551.2V138.2H551.3L553.4 144.3H554.3L556.4 138.2H556.5V144.3H557.5V135.8H556.2L553.9 142.4H553.8L551.5 135.8H550.2Z" class="a"/><path d="M561.9 139.2V135.8H560.8V144.3H563.6C565.2 144.3 566.1 143.2 566.1 141.7 566.1 140.2 565.2 139.2 563.6 139.2H561.9ZM561.9 140.3H563.6C564.5 140.3 565 140.9 565 141.7 565 142.5 564.5 143.2 563.6 143.2H561.9V140.3Z" class="a"/><path d="M598.4 180.6H600.7V188H601.8V180.6H604.1V179.5H598.4V180.6Z" class="a"/><path d="M607.9 179.5H606.8V188H607.9V184.4H609.2C609.4 186.7 610.7 188.1 612.4 188.1 614.3 188.1 615.7 186.4 615.7 183.7 615.7 181 614.3 179.4 612.4 179.4 610.6 179.4 609.3 180.8 609.2 183.3H607.9V179.5ZM614.6 183.7C614.6 185.8 613.7 186.9 612.4 186.9 611.2 186.9 610.2 185.8 610.2 183.7 610.2 181.7 611.2 180.5 612.4 180.5 613.7 180.5 614.6 181.7 614.6 183.7Z" class="a"/><path d="M618.4 179.5V188H619.4V181.8H619.5L621.6 188H622.5L624.7 181.8H624.7V188H625.8V179.5H624.4L622.1 186.1H622L619.7 179.5H618.4Z" class="a"/><path d="M629.1 188H633.7V186.9H630.1V184.3H633.4V183.2H630.1V180.6H633.6V179.5H629.1V188Z" class="a"/><path d="M636.6 188H637.7V184.3H641.3V188H642.4V179.5H641.3V183.2H637.7V179.5H636.6V188Z" class="a"/><path d="M646.6 182.9V179.5H645.5V188H648.2C649.8 188 650.8 186.9 650.8 185.4 650.8 183.9 649.8 182.9 648.2 182.9H646.6ZM646.6 184H648.2C649.2 184 649.7 184.6 649.7 185.4 649.7 186.2 649.2 186.9 648.2 186.9H646.6V184Z" class="a"/><path d="M697.5 209.4C697.5 206.7 696.1 205 694.2 205 692.3 205 690.9 206.7 690.9 209.4 690.9 212.1 692.3 213.7 694.2 213.7 696.1 213.7 697.5 212.1 697.5 209.4ZM696.4 209.4C696.4 211.4 695.4 212.6 694.2 212.6 692.9 212.6 692 211.4 692 209.4 692 207.3 692.9 206.2 694.2 206.2 695.4 206.2 696.4 207.3 696.4 209.4Z" class="a"/><path d="M700.3 205.1V213.6H701.4V207.5H701.4L703.6 213.6H704.4L706.6 207.5H706.7V213.6H707.7V205.1H706.4L704.1 211.7H704L701.7 205.1H700.3Z" class="a"/><path d="M717 207.9C716.8 206.1 715.6 205 714 205 712.1 205 710.8 206.7 710.8 209.4 710.8 212.1 712.1 213.7 714 213.7 715.6 213.7 716.8 212.6 717 210.9L715.9 210.9C715.7 212 714.9 212.6 714 212.6 712.8 212.6 711.8 211.4 711.8 209.4 711.8 207.3 712.8 206.2 714 206.2 715 206.2 715.7 206.8 715.9 207.9H717Z" class="a"/><path d="M724.1 213.6H725.5L722.5 209 725.5 205.1H724.1L721.3 208.7H720.9V205.1H719.8V213.6H720.9V209.8H721.7L724.1 213.6Z" class="a"/><path d="M805.4 121.5H806.7L803.7 116.9 806.7 113.1H805.4L802.5 116.6H802.2V113.1H801.1V121.5H802.2V117.7H802.9L805.4 121.5Z" class="a"/><path d="M809.3 121.5H810.4V118.6H811.9C813.6 118.6 814.4 117.4 814.4 115.8 814.4 114.3 813.6 113.1 811.9 113.1H809.3V121.5ZM810.4 117.5V114.2H811.8C812.9 114.2 813.3 114.9 813.3 115.8 813.3 116.8 812.9 117.5 811.8 117.5H810.4Z" class="a"/><path d="M817.1 121.5L817.7 119.3H820.6L821.2 121.5H822.4L819.8 113.1H818.5L815.9 121.5H817.1ZM818.1 118.2L819.1 114.6H819.2L820.3 118.2H818.1Z" class="a"/><path d="M830.7 115.8C830.4 114 829.2 113 827.7 113 825.8 113 824.4 114.6 824.4 117.3 824.4 120 825.8 121.7 827.7 121.7 829.3 121.7 830.4 120.5 830.7 118.8L829.5 118.8C829.4 119.9 828.6 120.5 827.7 120.5 826.4 120.5 825.5 119.4 825.5 117.3 825.5 115.2 826.4 114.1 827.7 114.1 828.6 114.1 829.4 114.7 829.5 115.8H830.7Z" class="a"/><path d="M833.5 121.5H834.6V117.8H838.2V121.5H839.3V113.1H838.2V116.7H834.6V113.1H833.5V121.5Z" class="a"/><path d="M848.7 117.3C848.7 114.6 847.3 113 845.4 113 843.5 113 842.2 114.6 842.2 117.3 842.2 120 843.5 121.7 845.4 121.7 847.3 121.7 848.7 120 848.7 117.3ZM847.6 117.3C847.6 119.4 846.7 120.5 845.4 120.5 844.2 120.5 843.2 119.4 843.2 117.3 843.2 115.2 844.2 114.1 845.4 114.1 846.7 114.1 847.6 115.2 847.6 117.3Z" class="a"/><path d="M856.4 121.5V113.1H853.8C852.1 113.1 851.3 114.2 851.3 115.7 851.3 116.9 851.8 117.7 852.7 118.1L851 121.5H852.3L853.8 118.3C853.8 118.3 853.8 118.3 853.8 118.3H855.3V121.5H856.4ZM855.3 117.2H853.9C852.9 117.2 852.4 116.7 852.4 115.7 852.4 114.8 852.9 114.2 854 114.2H855.3V117.2Z" class="a"/><path d="M859.5 121.5H860.6V118.6H862.1C863.8 118.6 864.6 117.4 864.6 115.8 864.6 114.3 863.8 113.1 862.1 113.1H859.5V121.5ZM860.6 117.5V114.2H862C863.1 114.2 863.5 114.9 863.5 115.8 863.5 116.8 863.1 117.5 862 117.5H860.6Z" class="a"/><path d="M873.5 115.8C873.2 114 872 113 870.5 113 868.6 113 867.2 114.6 867.2 117.3 867.2 120 868.6 121.7 870.5 121.7 872.1 121.7 873.2 120.5 873.5 118.8L872.4 118.8C872.2 119.9 871.4 120.5 870.5 120.5 869.2 120.5 868.3 119.4 868.3 117.3 868.3 115.2 869.2 114.1 870.5 114.1 871.4 114.1 872.2 114.7 872.4 115.8H873.5Z" class="a"/><path d="M880.6 121.5H881.9L878.9 116.9 881.9 113.1H880.6L877.7 116.6H877.4V113.1H876.3V121.5H877.4V117.7H878.1L880.6 121.5Z" class="a"/><path d="M875.9 188.1H876.4C877.5 188.1 877.9 187.3 878.2 186.5L880.7 179.5H879.6L877.9 184.4 876 179.5H874.8L877.4 185.9 877.3 186.2C877.1 186.6 876.9 187 876.3 187H875.9V188.1Z" class="a"/><path d="M882.7 188H883C884.7 188 885.1 186.5 885.2 183.8L885.3 180.6H887.8V188H888.9V179.5H884.3L884.1 183.5C884.1 185.9 883.8 186.8 882.9 186.8L882.7 186.9V188Z" class="a"/><path d="M892.6 188L893.2 185.7H896.1L896.8 188H897.9L895.3 179.5H894L891.4 188H892.6ZM893.6 184.6L894.6 181H894.7L895.8 184.6H893.6Z" class="a"/><path d="M900.5 188H901.6V184.3H905.2V188H906.3V179.5H905.2V183.2H901.6V179.5H900.5V188Z" class="a"/><path d="M912.5 183.2H909.3V184.3H912.5V183.2Z" class="a"/><path d="M915.4 188.1H915.9C917 188.1 917.4 187.3 917.7 186.5L920.2 179.5H919.1L917.4 184.4 915.5 179.5H914.3L916.9 185.9 916.8 186.2C916.6 186.6 916.4 187 915.8 187H915.4V188.1Z" class="a"/><path d="M922.2 190H923.3V188H928.2V190H929.2V186.9H928.4V179.5H923.9L923.7 183.1C923.6 185.4 923.2 186.4 922.7 186.9H922.2V190ZM924 186.9C924.4 186.1 924.7 184.9 924.8 183.1L924.9 180.6H927.3V186.9H924Z" class="a"/><path d="M931.7 185.3C931.8 186.9 932.7 188.1 934.5 188.1 936.2 188.1 937.4 186.6 937.4 184.2V183.3C937.4 180.9 936.2 179.4 934.4 179.4 932.7 179.4 931.8 180.6 931.7 182.2H932.8C932.9 181.1 933.4 180.5 934.4 180.5 935.6 180.5 936.2 181.6 936.2 183.3H933.6V184.4H936.2C936.2 185.9 935.6 187 934.5 187 933.4 187 932.9 186.4 932.8 185.3H931.7Z" class="a"/><path d="M106.7 39.2C106.7 41.4 105.2 43.3 103.3 43.3 101.3 43.3 99.8 41.4 99.8 39.2 99.8 36.9 101.3 35.1 103.3 35.1 105.2 35.1 106.7 36.9 106.7 39.2Z" fill="#272722"/><path d="M103.3 42.1C104.6 42.1 105.7 40.8 105.7 39.2 105.7 37.6 104.6 36.3 103.3 36.3 101.9 36.3 100.8 37.6 100.8 39.2 100.8 40.8 101.9 42.1 103.3 42.1ZM103.3 43.3C105.2 43.3 106.7 41.4 106.7 39.2 106.7 36.9 105.2 35.1 103.3 35.1 101.3 35.1 99.8 36.9 99.8 39.2 99.8 41.4 101.3 43.3 103.3 43.3Z" class="a"/><path d="M21 133.8C21 136 19.4 137.8 17.5 137.8 15.6 137.8 14 136 14 133.8 14 131.5 15.6 129.7 17.5 129.7 19.4 129.7 21 131.5 21 133.8Z" fill="#131313"/><path d="M17.5 136.7C18.9 136.7 20 135.4 20 133.8 20 132.2 18.9 130.9 17.5 130.9 16.1 130.9 15 132.2 15 133.8 15 135.4 16.1 136.7 17.5 136.7ZM17.5 137.8C19.4 137.8 21 136 21 133.8 21 131.5 19.4 129.7 17.5 129.7 15.6 129.7 14 131.5 14 133.8 14 136 15.6 137.8 17.5 137.8Z" class="a"/><path d="M215 181.7C215 183.9 213.5 185.7 211.5 185.7 209.6 185.7 208 183.9 208 181.7 208 179.4 209.6 177.6 211.5 177.6 213.5 177.6 215 179.4 215 181.7Z" fill="#4D5648"/><path d="M211.5 184.6C212.9 184.6 214 183.3 214 181.7 214 180.1 212.9 178.8 211.5 178.8 210.2 178.8 209 180.1 209 181.7 209 183.3 210.2 184.6 211.5 184.6ZM211.5 185.7C213.5 185.7 215 183.9 215 181.7 215 179.4 213.5 177.6 211.5 177.6 209.6 177.6 208 179.4 208 181.7 208 183.9 209.6 185.7 211.5 185.7Z" class="a"/><path d="M247.3 207.1C247.3 209.4 245.8 211.2 243.8 211.2 241.9 211.2 240.3 209.4 240.3 207.1 240.3 204.9 241.9 203 243.8 203 245.8 203 247.3 204.9 247.3 207.1Z" fill="#47443E"/><path d="M243.8 210C245.2 210 246.3 208.7 246.3 207.1 246.3 205.5 245.2 204.2 243.8 204.2 242.5 204.2 241.3 205.5 241.3 207.1 241.3 208.7 242.5 210 243.8 210ZM243.8 211.2C245.8 211.2 247.3 209.4 247.3 207.1 247.3 204.9 245.8 203 243.8 203 241.9 203 240.3 204.9 240.3 207.1 240.3 209.4 241.9 211.2 243.8 211.2Z" class="a"/><path d="M335.5 148.1C335.5 150.3 334 152.2 332 152.2 330.1 152.2 328.5 150.3 328.5 148.1 328.5 145.8 330.1 144 332 144 334 144 335.5 145.8 335.5 148.1Z" fill="#93A47C"/><path d="M332 151C333.4 151 334.5 149.7 334.5 148.1 334.5 146.5 333.4 145.2 332 145.2 330.7 145.2 329.5 146.5 329.5 148.1 329.5 149.7 330.7 151 332 151ZM332 152.2C334 152.2 335.5 150.3 335.5 148.1 335.5 145.8 334 144 332 144 330.1 144 328.5 145.8 328.5 148.1 328.5 150.3 330.1 152.2 332 152.2Z" class="a"/><path d="M413.2 187.8C413.2 190 411.7 191.8 409.8 191.8 407.8 191.8 406.3 190 406.3 187.8 406.3 185.5 407.8 183.7 409.8 183.7 411.7 183.7 413.2 185.5 413.2 187.8Z" fill="#738F8C"/><path d="M409.8 190.7C411.1 190.7 412.2 189.4 412.2 187.8 412.2 186.2 411.1 184.9 409.8 184.9 408.4 184.9 407.3 186.2 407.3 187.8 407.3 189.4 408.4 190.7 409.8 190.7ZM409.8 191.8C411.7 191.8 413.2 190 413.2 187.8 413.2 185.5 411.7 183.7 409.8 183.7 407.8 183.7 406.3 185.5 406.3 187.8 406.3 190 407.8 191.8 409.8 191.8Z" class="a"/><path d="M515.4 215.2C515.4 217.5 513.9 219.3 511.9 219.3 510 219.3 508.4 217.5 508.4 215.2 508.4 213 510 211.2 511.9 211.2 513.9 211.2 515.4 213 515.4 215.2Z" fill="#789186"/><path d="M511.9 218.1C513.3 218.1 514.4 216.8 514.4 215.2 514.4 213.6 513.3 212.3 511.9 212.3 510.5 212.3 509.4 213.6 509.4 215.2 509.4 216.8 510.5 218.1 511.9 218.1ZM511.9 219.3C513.9 219.3 515.4 217.5 515.4 215.2 515.4 213 513.9 211.2 511.9 211.2 510 211.2 508.4 213 508.4 215.2 508.4 217.5 510 219.3 511.9 219.3Z" class="a"/><path d="M548.6 155.2C548.6 157.5 547 159.3 545.1 159.3 543.2 159.3 541.6 157.5 541.6 155.2 541.6 153 543.2 151.1 545.1 151.1 547 151.1 548.6 153 548.6 155.2Z" fill="#8CBABB"/><path d="M545.1 158.1C546.5 158.1 547.6 156.8 547.6 155.2 547.6 153.6 546.5 152.3 545.1 152.3 543.7 152.3 542.6 153.6 542.6 155.2 542.6 156.8 543.7 158.1 545.1 158.1ZM545.1 159.3C547 159.3 548.6 157.5 548.6 155.2 548.6 153 547 151.1 545.1 151.1 543.2 151.1 541.6 153 541.6 155.2 541.6 157.5 543.2 159.3 545.1 159.3Z" class="a"/><path d="M605.4 201C605.4 203.2 603.8 205.1 601.9 205.1 599.9 205.1 598.4 203.2 598.4 201 598.4 198.8 599.9 196.9 601.9 196.9 603.8 196.9 605.4 198.8 605.4 201Z" fill="#414847"/><path d="M601.9 203.9C603.2 203.9 604.4 202.6 604.4 201 604.4 199.4 603.2 198.1 601.9 198.1 600.5 198.1 599.4 199.4 599.4 201 599.4 202.6 600.5 203.9 601.9 203.9ZM601.9 205.1C603.8 205.1 605.4 203.2 605.4 201 605.4 198.8 603.8 196.9 601.9 196.9 599.9 196.9 598.4 198.8 598.4 201 598.4 203.2 599.9 205.1 601.9 205.1Z" class="a"/><path d="M711 185.7C711 188 709.5 189.8 707.5 189.8 705.6 189.8 704 188 704 185.7 704 183.5 705.6 181.7 707.5 181.7 709.5 181.7 711 183.5 711 185.7Z" fill="#577379"/><path d="M707.5 188.6C708.9 188.6 710 187.3 710 185.7 710 184.1 708.9 182.8 707.5 182.8 706.2 182.8 705 184.1 705 185.7 705 187.3 706.2 188.6 707.5 188.6ZM707.5 189.8C709.5 189.8 711 188 711 185.7 711 183.5 709.5 181.7 707.5 181.7 705.6 181.7 704 183.5 704 185.7 704 188 705.6 189.8 707.5 189.8Z" class="a"/><path d="M846 130.8C846 133 844.4 134.9 842.5 134.9 840.5 134.9 839 133 839 130.8 839 128.5 840.5 126.7 842.5 126.7 844.4 126.7 846 128.5 846 130.8Z" fill="#3E403A"/><path d="M842.5 133.7C843.8 133.7 845 132.4 845 130.8 845 129.2 843.8 127.9 842.5 127.9 841.1 127.9 840 129.2 840 130.8 840 132.4 841.1 133.7 842.5 133.7ZM842.5 134.9C844.4 134.9 846 133 846 130.8 846 128.5 844.4 126.7 842.5 126.7 840.5 126.7 839 128.5 839 130.8 839 133 840.5 134.9 842.5 134.9Z" class="a"/><path d="M909 162.9C909 165.2 907.4 167 905.5 167 903.6 167 902 165.2 902 162.9 902 160.7 903.6 158.8 905.5 158.8 907.4 158.8 909 160.7 909 162.9Z" fill="#181A19"/><path d="M905.5 165.8C906.9 165.8 908 164.5 908 162.9 908 161.3 906.9 160 905.5 160 904.1 160 903 161.3 903 162.9 903 164.5 904.1 165.8 905.5 165.8ZM905.5 167C907.4 167 909 165.2 909 162.9 909 160.7 907.4 158.8 905.5 158.8 903.6 158.8 902 160.7 902 162.9 902 165.2 903.6 167 905.5 167Z" class="a"/></svg>